<svg xmlns="http://www.w3.org/2000/svg" viewBox="0 0 629.45 147.98"><defs><style>.cls-1{fill:#1c5d97;stroke:#1c5d97;stroke-width:5px;}.cls-1,.cls-2{stroke-miterlimit:10;}.cls-2{fill:none;stroke:#009fe3;stroke-width:6px;}.cls-3{font-size:95px;fill:#f39200;font-family:AvenirNext-Regular, Avenir Next;letter-spacing:-0.09em;}.cls-4{letter-spacing:-0.07em;}.cls-5{letter-spacing:-0.09em;}.cls-6{letter-spacing:-0.08em;}.cls-7{letter-spacing:-0.07em;}</style></defs><title>ticketsgenerator</title><g id="Lager_1" data-name="Lager 1"><path class="cls-1" d="M582.15,247.25l-5.83-2.65s4.18-1.43,6.34-.69l23.55-93.28a16,16,0,0,1-6.77-7.57,15.56,15.56,0,0,1-.88-9.2c-10.23-2.37-23.54-7.15-33.77-9.51l1.75-3.9a13.65,13.65,0,0,0,10-1.55A16.68,16.68,0,0,0,583,112a.29.29,0,0,1,.37-.14l50,21.53a.29.29,0,0,1,.16.36,14.73,14.73,0,0,0-.76,9,18.81,18.81,0,0,0,5.23,8.66L598.55,239a13.75,13.75,0,0,0-9.16,1.12,21,21,0,0,0-6.88,7A.27.27,0,0,1,582.15,247.25Z" transform="translate(-11.63 -109.31)"/><path class="cls-2" d="M523.14,156.4l7.52-24.69a13.67,13.67,0,0,0,9.63-3.12,16.48,16.48,0,0,0,5.22-7.86.3.3,0,0,1,.35-.19l52.39,13.25a.28.28,0,0,1,.21.33,14.82,14.82,0,0,0,.71,9,18.92,18.92,0,0,0,6.59,7.73l-24.55,92.73c-1,0-5.36-.21-8.86,2.56a20.73,20.73,0,0,0-5.64,8,.28.28,0,0,1-.33.17l-52.33-13.36a.28.28,0,0,1-.2-.35,15.26,15.26,0,0,0-.86-9.85c-2-4.9-2.75-5.41-3.73-6.71" transform="translate(-11.63 -109.31)"/></g><g id="Lager_2" data-name="Lager 2"><text class="cls-3" transform="translate(0 103.74) scale(0.9 1.1)">T<tspan class="cls-4" x="45.98" y="0">ic</tspan><tspan class="cls-5" x="103.17" y="0">k</tspan><tspan class="cls-4" x="142.88" y="0">etsGene</tspan><tspan x="458.18" y="0">r</tspan><tspan class="cls-6" x="484.21" y="0">a</tspan><tspan class="cls-7" x="526.96" y="0">tor</tspan></text></g></svg>